<svg xmlns="http://www.w3.org/2000/svg" viewBox="0 0 530.48535 159.164"><title>SubSonic Logo VECTOR (white)</title><path d="M293.5185,176.0439q103.9131,0,207.8281-.0044c8.959-.0009,17.918-0.0932,26.877-0.0791a33.49573,33.49573,0,0,1,5.9687.461c5.5313,1.0166,9.5577,4.2373,12.4375,8.976a65.25365,65.25365,0,0,1,7.3028,17.918,151.40746,151.40746,0,0,1,3.3262,21.0513,291.10424,291.10424,0,0,1,1.332,44.0806c-0.4766,11.2573-1.1563,22.5444-3.7783,33.5424a197.07789,197.07789,0,0,1-5.8291,19.0059,26.15692,26.15692,0,0,1-6.708,9.8389,14.91094,14.91094,0,0,1-10.2374,4.0722c-1.1171.0459-2.2392,0.0176-3.3593,0.0176q-135.7119,0-271.4243.0068-97.5543.03075-195.1084,0.16209c-1.43952.001-2.88042,0.01861-4.31942-.02049-8.229-.2197-14.3384-3.9062-18.2461-11.18451a73.82647,73.82647,0,0,1-5.9751-15.13089,113.59567,113.59567,0,0,1-3.2715-18.6279,315.08694,315.08694,0,0,1-1.915-37.5879,287.96211,287.96211,0,0,1,3.2993-41.7979,68.75663,68.75663,0,0,1,8.0679-23.9487,31.80986,31.80986,0,0,1,3.1294-4.5268,16.65528,16.65528,0,0,1,11.5903-6.06791c2.7027-.24219,5.43122-0.26809,8.1475-0.26609q54.71625,0.049,109.43262.1303,60.71625,0.03735,121.4326.0059v-0.0264Zm-39.6484,152.7222h4.8618q134.2581,0.0498,268.5171.0986c0.9599,0,1.9228.0157,2.8779-.0576,5.207-.4004,9.5088-2.4023,11.752-7.3818a92.24236,92.24236,0,0,0,6.7373-19.1914,211.795,211.795,0,0,0,3.8213-34.5274,308.98377,308.98377,0,0,0-2.876-55.269,68.15236,68.15236,0,0,0-6.8633-21.5996c-3.1523-6.1792-7.8662-8.8369-14.8467-8.792-32.874.2104-65.749,0.1909-98.623,0.2065q-73.06785.0345-146.1367,0.0059-13.19835,0-26.396.00489c-0.9253.00091-1.8506,0.07031-2.8257,0.11031v146.3926Zm-18.9707-79.33691a7.06437,7.06437,0,0,0,1.354-.77639,23.13593,23.13593,0,0,0,7.6069-16.3174c0.2681-6.4604.1983-12.9433,0.0381-19.4106-0.3169-12.8237-11.687-24.0357-24.541-24.2222-8.0757-.1177-16.1543-0.0278-24.232-0.0171-0.8505.001-1.7011,0.0952-2.5034,0.1436-0.4829,3.99609-.2983,132.0542.1792,133.7983,0.4517,0.0235.9243,0.0694,1.3965,0.0694,8.2378,0.0029,16.4761.0742,24.7124-.01661a25.52583,25.52583,0,0,0,25.0098-24.98729c0.1147-9.5162.0019-19.0342,0.0522-28.5508a23.77284,23.77284,0,0,0-5.9702-16.0352C237.0791,252.02539,236.1674,250.93359,234.8994,249.42918Zm-115.355-60.56349c-0.0581,1.0029-.144,1.7857-0.1431,2.5684q0.0279,52.7841.0923,105.5683a28.47787,28.47787,0,0,0,.52,5.4756c3.6695,18.4453,25.0298,24.5508,36.92142,17.3408,8.937-5.4199,13.9805-13.1924,13.9873-23.8271,0.0127-20.0737-.0727-40.148-0.0888-60.2222-0.0122-14.7158.0234-29.4316,0.0312-44.1474,0.0005-.92091-0.0547-1.8418-0.083-2.73391H158.32077v3.19531q-0.0066,51.7053-.0215,103.4111a23.6311,23.6311,0,0,1-.1958,3.3467,12.91154,12.91154,0,0,1-13.0073,11.37989c-6.608-.04889-11.857-4.90139-12.6421-11.753a40.13,40.13,0,0,1-.2046-4.54879q-0.0315-50.986-.0449-101.9717c-0.0005-1.0039-.0938-2.0073-0.147-3.082h-12.5132Zm-71.9771,82.9429a5.57127,5.57127,0,0,0-.1811.8818c-0.0571,6.9566-.1636,13.9136-0.1279,20.8696a47.14215,47.14215,0,0,0,.5693,8.6006,25.66858,25.66858,0,0,0,29.3979,20.3887c10.667-1.7598,18.91852-9.4795,20.9327-19.8008a44.706,44.706,0,0,0,.6196-7.6357c0.11522-5.6743.0591-11.35261,0.1377-17.0283a23.34743,23.34743,0,0,0-4.0508-13.8184,62.52368,62.52368,0,0,0-6.82468-8.3232c-3.63182-3.71-7.56932-7.11971-11.355-10.68071-2.97022-2.794-5.98872-5.54349-8.84282-8.45259a27.05821,27.05821,0,0,1-7.8359-22.7789,15.18826,15.18826,0,0,1,2.1914-6.539c2.94732-4.7222,7.1958-6.99951,12.75832-6.2451,5.35058,0.72559,8.834,3.9131,10.44478,9.0078a19.71082,19.71082,0,0,1,.731,5.19379c0.1177,3.27491.0376,6.55671,0.0674,9.835,0.00682,0.68071.1347,1.35991,0.2095,2.06441h11.9755a1.23029,1.23029,0,0,0,.2715-0.3242c0.021-5.1924.4087-10.4155-.0254-15.5698-1.0249-12.1699-12.9658-23.9731-27.3725-22.79641-12.05278.98491-22.5703,10.55961-23.7339,22.57961a141.05041,141.05041,0,0,0-.398,15.8071,16.61631,16.61631,0,0,0,4.1607,10.751c1.147,1.3335,2.2847,2.67629,3.46042,3.9844a222.41425,222.41425,0,0,0,18.01958,17.5781,96.83955,96.83955,0,0,1,8.913,9.355,15.51885,15.51885,0,0,1,3.7476,8.4433,110.94459,110.94459,0,0,1,.0903,22.0352c-0.4301,4.8682-3.3042,8.2871-7.81048,10.07029-4.63432,1.834-9.09382,1.40331-13.06012-1.89059a13.27862,13.27862,0,0,1-4.8403-10.9961c0.0791-7.2764.0391-14.5547,0.0493-21.832,0.001-.8604,0-1.7212,0-2.7339H47.56728Z" transform="translate(-28.39604 -175.934)" style="fill:#fff;fill-rule:evenodd"/><path d="M407.1396,229.37549v93.1054H394.663V189.0947c1.6114-.4468,12.7969-0.5791,16.3594-0.1538q10.8165,44.59275,21.6729,89.3481,0.29-.04322.5801-0.0854V188.8174c2.2558-.0269,4.2998-0.0601,6.3437-0.0723,1.9902-.0122,3.9814-0.0024,5.9268-0.0024,0.5332,1.8867.6269,131.0879,0.1113,133.75-0.3389.0322-.7217,0.10149-1.1035,0.10249-4.6328.00681-9.2657,0.00491-14.167,0.00491q-5.68065-23.47275-11.3281-46.813-5.6265-23.26245-11.2452-46.5254Q407.4765,229.31884,407.1396,229.37549Z" transform="translate(-28.39604 -175.934)" style="fill:#fff;fill-rule:evenodd"/><path d="M380.4316,255.29689q0,20.39565-.001,40.7905a26.05526,26.05526,0,0,1-10.8867,21.8994c-15.3154,11.4668-37.5332,1.5566-40.2832-17.1357a39.73774,39.73774,0,0,1-.3926-5.7305q-0.0468-39.471-.0459-78.94241c-0.0088-6.88959,1.8282-13.16009,6.3487-18.40329,6.7968-7.8828,15.4257-11.2368,25.5781-8.4356,10.2129,2.81789,17.208,9.2915,19.2187,20.1553a37.56765,37.56765,0,0,1,.4453,6.6919C380.4521,229.22309,380.4316,242.26018,380.4316,255.29689Zm-38.751.48729H341.667q0,8.99477.0029,17.98871c0.0146,8.0752-.0713,16.1524.1094,24.2237a12.82717,12.82717,0,0,0,24.8388,3.9677,18.56868,18.56868,0,0,0,.9873-6.0937q0.12015-34.65825.0811-69.3169c0.001-4.1572.0498-8.3164-.0469-12.4722-0.1601-6.8564-5.1006-12.32031-11.5322-12.8838-7.1113-.623-12.669,3.46049-14.1201,10.4786a21.53757,21.53757,0,0,0-.294,4.2924Q341.66255,235.87669,341.6806,255.78418Z" transform="translate(-28.39604 -175.934)" style="fill:#fff;fill-rule:evenodd"/><path d="M264.6577,271.69729h12.7495c0,0.93889-.001,1.7875.0005,2.6367,0.0102,7.0376-.002,14.0757.0503,21.1128a24.56786,24.56786,0,0,0,.4106,4.7597,12.52066,12.52066,0,0,0,12.3638,10.0332,12.89106,12.89106,0,0,0,12.623-9.81051,15.19111,15.19111,0,0,0,.4131-3.31639c0.044-5.437.0137-10.8755,0.0293-16.313a19.859,19.859,0,0,0-4.0498-12.0552,57.26723,57.26723,0,0,0-9.2392-9.7139,186.69019,186.69019,0,0,1-17.0743-16.4868c-1.3471-1.477-2.6523-2.9922-3.9604-4.5039a17.64691,17.64691,0,0,1-4.3662-11.4209c-0.1006-4.7085.0254-9.4326,0.2861-14.1367,0.731-13.1855,12.3052-24.292,26.9316-23.8769,13.1812,0.3745,24.563,12.1186,24.5474,25.3173q-0.00585,5.63745-.042,11.27539c-0.0039.627-.0635,1.25391-0.1055,2.03081H303.7597c0-1.2134.0235-2.315-.0039-3.4151-0.0986-3.832.0488-7.6933-.3838-11.48771A12.53212,12.53212,0,0,0,292.6855,201.249a12.72014,12.72014,0,0,0-13.5293,7.3975c-1.9766,4.0493-2.0478,8.3486-1.4932,12.6723a26.10017,26.10017,0,0,0,8.0215,15.7217c5.2842,5.1162,10.7871,10.0059,16.0957,15.0986a114.48337,114.48337,0,0,1,8.1084,8.4947,26.32225,26.32225,0,0,1,6.5567,19.0005c-0.2627,5.10489.0078,10.2348-.124,15.3496a45.0097,45.0097,0,0,1-.7979,8.5664,24.879,24.879,0,0,1-20.8125,19.0263,25.63715,25.63715,0,0,1-29.4507-20.9111,57.94593,57.94593,0,0,1-.6362-9.0781c-0.1026-6.4766-.0571-12.9551-0.0664-19.4331C264.5571,272.76609,264.6093,272.37789,264.6577,271.69729Z" transform="translate(-28.39604 -175.934)" style="fill:#fff;fill-rule:evenodd"/><path d="M527.9179,284.02729c0.8438-.05911,1.3877-0.1289,1.9317-0.1303,3.5058-.0103,7.0117-0.0049,10.3759-0.0049a1.81065,1.81065,0,0,1,.4073.55809c-0.1836,5.50391-.0723,11.03951-0.6436,16.50341-1.3262,12.668-11.9092,20.4238-22.5127,21.7227-14.1025,1.7275-26.0635-9.2813-28.1084-21.1006a29.46585,29.46585,0,0,1-.3857-5.0118c0.0019-27.6733-.0293-55.3466.0879-83.0195,0.0498-11.6553,9.4951-22.7007,21.1074-24.6391,12.873-2.1495,24.1211,5.0756,28.0478,14.9541a31.84579,31.84579,0,0,1,2.0528,8.8169c0.4316,4.8325.3613,9.70989,0.5078,14.729H527.9043c0-.855.0136-1.6968-0.002-2.53911-0.0762-4.07469.0928-8.17379-.2969-12.21879-0.6884-7.1445-6.4873-11.8335-13.7646-11.458-7.0127.3619-11.957,6.856-11.9268,12.982,0.1094,22.3945.0156,44.7895,0.0088,67.1845-0.0019,5.439-.0312,10.8789.0664,16.3164a12.83843,12.83843,0,0,0,24.8613,4.2325,21.95,21.95,0,0,0,1.0157-6.1065c0.166-3.0307.0488-6.07711,0.0517-9.1162C527.9189,285.88909,527.9179,285.09669,527.9179,284.02729Z" transform="translate(-28.39604 -175.934)" style="fill:#fff;fill-rule:evenodd"/><path d="M474.1484,322.40569H462.0273V188.7378h12.1211v133.6679Z" transform="translate(-28.39604 -175.934)" style="fill:#fff;fill-rule:evenodd"/><path d="M205.2265,255.68359c5.4561,0.3335,10.7305.4399,15.9497,1.0351,5.2827,0.6031,8.9214,4.4712,9.7466,9.7183a22.00636,22.00636,0,0,1,.2891,3.3379q0.03885,13.18875.0068,26.3779a25.43556,25.43556,0,0,1-.3047,3.81739c-0.7802,5.05081-5.1552,9.67971-10.2207,10.05571-5.0732.3769-10.1958,0.083-15.4668,0.083v-54.4253Z" transform="translate(-28.39604 -175.934)" style="fill:#fff;fill-rule:evenodd"/><path d="M205.1635,243.45459V202.03318a1.42192,1.42192,0,0,1,.4571-0.34819c5.3413-.2954,10.685-0.6543,16.0229.0127,4.5215,0.56549,8.6597,4.7569,9.2329,9.7349a91.16149,91.16149,0,0,1,.4038,10.2852,96.63141,96.63141,0,0,1-.3589,11.0039,11.96845,11.96845,0,0,1-11.8754,10.708C214.5044,243.55709,209.956,243.45459,205.1635,243.45459Z" transform="translate(-28.39604 -175.934)" style="fill:#fff;fill-rule:evenodd"/></svg>